<svg preserveAspectRatio="none" overflow="visible" style="display: block;" width="16" height="16" viewBox="0 0 16 16" fill="none" xmlns="http://www.w3.org/2000/svg">
<g id="Group 1045">
<path id="Ellipse 827" d="M8 0.5C8.98491 0.5 9.96018 0.693993 10.8701 1.0709C11.7801 1.44781 12.6069 2.00026 13.3033 2.6967C13.9997 3.39314 14.5522 4.21993 14.9291 5.12988C15.306 6.03982 15.5 7.01509 15.5 8C15.5 8.98492 15.306 9.96019 14.9291 10.8701C14.5522 11.7801 13.9997 12.6069 13.3033 13.3033C12.6069 13.9997 11.7801 14.5522 10.8701 14.9291C9.96018 15.306 8.98491 15.5 8 15.5C7.01508 15.5 6.03981 15.306 5.12987 14.9291C4.21993 14.5522 3.39314 13.9997 2.6967 13.3033C2.00026 12.6069 1.44781 11.7801 1.0709 10.8701C0.693992 9.96018 0.5 8.98491 0.5 8C0.5 7.01508 0.693994 6.03981 1.07091 5.12987C1.44782 4.21993 2.00026 3.39314 2.6967 2.6967C3.39314 2.00026 4.21994 1.44781 5.12988 1.0709C6.03982 0.693992 7.01509 0.499999 8 0.5L8 0.5Z" stroke="#0A0A0A"/>
<path id="Vector 2300" d="M0.666667 8H8H15.3333" stroke="#0A0A0A"/>
<path id="Vector 2302" d="M0.666667 8H8H15.3333" stroke="#0A0A0A"/>
<path id="Vector 2304" d="M2.66667 13.3333C2.66667 13.3333 4 12 8 12C12 12 13.3333 13.3333 13.3333 13.3333" stroke="#0A0A0A"/>
<path id="Vector 2305" d="M2.66667 2.66667C2.66667 2.66667 4 4 8 4C12 4 13.3333 2.66667 13.3333 2.66667" stroke="#0A0A0A"/>
<path id="Vector 2301" d="M8 0.666667L8 8L8 15.3333" stroke="#0A0A0A"/>
<path id="Vector 2306" d="M8 0.666666C8 0.666666 12.4444 2.66667 12.4444 8C12.4444 13.3333 8 15.3333 8 15.3333" stroke="#0A0A0A"/>
<path id="Vector 2307" d="M8 0.666666C8 0.666666 3.55556 2.66667 3.55556 8C3.55556 13.3333 8 15.3333 8 15.3333" stroke="#0A0A0A"/>
</g>
</svg>
